<svg viewBox="0 0 470 287" xmlns="http://www.w3.org/2000/svg" xmlns:xlink="http://www.w3.org/1999/xlink" id="Layer_1" overflow="hidden"><g><path d="M125.4 205.8 115.8 205.8C110.3 205.8 105.6 203.8 101.7 199.9 97.8 196 95.8 191.3 95.8 185.8L95.8 159.8C95.8 156.5 94.6 153.6 92.2 151.1 89.9 148.7 87 147.5 83.7 147.5L82 147.5 82 137.1 83.6 137.1C86.9 137.1 89.8 135.9 92.2 133.5 94.6 131 95.8 128.1 95.8 124.8L95.8 99.4C95.8 93.9 97.8 89.2 101.7 85.3 105.6 81.4 110.3 79.4 115.8 79.4L125.4 79.4 125.4 88.4 115.8 88.4C113.1 88.4 110.8 89.4 108.9 91.3 107 93.2 106.1 95.5 106.1 98.2L106.1 124.6C106.1 128.6 105 132.3 102.8 135.6 100.5 139.2 97.4 141.4 93.7 142.3 97.7 143.7 100.9 146 103.1 149.3 105.1 152.5 106.1 156 106.1 159.9L106.1 187C106.1 189.7 107 192 108.9 193.9 110.9 195.8 113.2 196.7 115.8 196.7L125.4 196.7 125.4 205.8Z" fill="#D0DF00"/><g><g><path d="M161.2 156.3C161.2 160 159.9 163.1 157.3 165.7 154.7 168.3 151.6 169.6 148 169.6L134.8 169.6 134.8 115.4 148 115.4C151.6 115.4 154.7 116.7 157.3 119.3 159.9 121.9 161.2 125.1 161.2 128.7L161.2 156.3ZM153 162.2C154.4 160.7 155.1 159 155.1 157.1L155.1 128.1C155.1 126.2 154.4 124.5 153 123 151.6 121.6 149.9 120.9 147.9 120.9L140.8 120.9 140.8 164.3 147.9 164.3C150 164.3 151.6 163.6 153 162.2Z" fill="#333D48"/><path d="M199.3 150 179 150 179 157.7C179 159.7 179.7 161.4 181.1 162.8 182.5 164.2 184.2 164.9 186.2 164.9 190 164.9 192.8 163.2 194.5 159.7L199.1 162.9C196 167.8 191.7 170.3 186.2 170.3 182.5 170.3 179.4 169 176.9 166.4 174.3 163.8 173 160.6 173 156.9L173 140.6C173 136.9 174.3 133.7 176.9 131.2 179.5 128.6 182.6 127.3 186.2 127.3 189.8 127.3 192.9 128.6 195.5 131.2 198.1 133.8 199.4 137 199.4 140.6L199.4 150ZM193.2 144.6 193.2 139.9C193.2 138 192.5 136.3 191.1 134.8 189.7 133.4 188 132.7 186.1 132.7 184.1 132.7 182.4 133.4 181 134.8 179.6 136.2 178.9 137.9 178.9 139.9L178.9 144.6 193.2 144.6Z" fill="#333D48"/><path d="M240.6 128 227.8 169.6 221.6 169.6 208.9 128 215.2 128 224.8 161.4 234.4 128 240.6 128Z" fill="#333D48"/><path d="M276.6 169.6 250.3 169.6 250.3 161.7 270 120.8 250.3 120.8 250.3 115.4 276.6 115.4 276.6 121.1 255.9 164.2 276.6 164.2 276.6 169.6Z" fill="#333D48"/><path d="M314.3 157C314.3 160.7 313 163.8 310.4 166.4 307.8 169 304.7 170.3 301.1 170.3 297.4 170.3 294.3 169 291.8 166.4 289.2 163.8 287.9 160.7 287.9 157L287.9 140.7C287.9 137 289.2 133.8 291.8 131.3 294.4 128.7 297.5 127.4 301.1 127.4 304.7 127.4 307.8 128.7 310.4 131.3 313 133.9 314.3 137.1 314.3 140.7L314.3 157ZM306.2 162.9C307.6 161.5 308.3 159.8 308.3 157.8L308.3 140C308.3 138 307.6 136.3 306.2 134.9 304.8 133.5 303.1 132.8 301.2 132.8 299.2 132.8 297.6 133.5 296.1 134.9 294.6 136.3 294 138 294 140L294 157.8C294 159.8 294.7 161.5 296.1 162.9 297.5 164.3 299.2 165 301.2 165 303.2 165 304.8 164.3 306.2 162.9Z" fill="#333D48"/><path d="M353 169.6 347 169.6 347 140C347 138 346.5 136.3 345.4 134.9 344.3 133.5 342.7 132.8 340.9 132.8 337.6 132.8 334.8 134.3 332.7 137.3L332.7 169.6 326.7 169.6 326.7 128 332.7 128 332.7 132.7C335.2 129.2 338.5 127.5 342.4 127.5 345.4 127.5 347.9 128.6 350 130.8 352.1 133.1 353.1 136 353.1 139.7L353.1 169.6Z" fill="#333D48"/><path d="M391.7 150 371.4 150 371.4 157.7C371.4 159.7 372.1 161.4 373.5 162.8 374.9 164.2 376.6 164.9 378.6 164.9 382.4 164.9 385.2 163.2 386.9 159.7L391.5 162.9C388.4 167.8 384.1 170.3 378.6 170.3 374.9 170.3 371.8 169 369.3 166.4 366.7 163.8 365.4 160.6 365.4 156.9L365.4 140.6C365.4 136.9 366.7 133.7 369.3 131.2 371.9 128.6 375 127.3 378.6 127.3 382.2 127.3 385.3 128.6 387.9 131.2 390.5 133.8 391.8 137 391.8 140.6L391.8 150ZM385.6 144.6 385.6 139.9C385.6 138 384.9 136.3 383.5 134.8 382.1 133.4 380.4 132.7 378.5 132.7 376.5 132.7 374.8 133.4 373.4 134.8 372 136.2 371.3 137.9 371.3 139.9L371.3 144.6 385.6 144.6Z" fill="#333D48"/></g></g></g></svg>